<svg xmlns="http://www.w3.org/2000/svg" viewBox="0 0 21.21 21.21"><defs><style>.cls-1{fill:#e4e4e4;}</style></defs><title>facebook</title><g id="Capa_2" data-name="Capa 2"><g id="Controles_bootstrap" data-name="Controles bootstrap"><path class="cls-1" d="M18.35,0H2.86A2.86,2.86,0,0,0,0,2.86V18.35a2.86,2.86,0,0,0,2.86,2.86H10.5V13.63h-2a.47.47,0,0,1-.46-.46V10.73a.47.47,0,0,1,.46-.47h2V7.9a3.86,3.86,0,0,1,4.12-4.23h2a.46.46,0,0,1,.47.46V6.19a.47.47,0,0,1-.47.47H15.39c-1.33,0-1.58.63-1.58,1.56v2h2.92a.46.46,0,0,1,.46.52l-.29,2.44a.46.46,0,0,1-.46.41H13.82v7.58h4.54a2.86,2.86,0,0,0,2.86-2.86V2.86A2.86,2.86,0,0,0,18.35,0Z"/></g></g></svg>