<svg xmlns="http://www.w3.org/2000/svg" xmlns:xlink="http://www.w3.org/1999/xlink" viewBox="0 0 21.21 21.21"><defs><style>.cls-1{fill:url(#Degradado_sin_nombre_4);}.cls-2{fill:url(#Degradado_sin_nombre_2);}.cls-3{fill:url(#Degradado_sin_nombre_3);}.cls-4{fill:url(#Degradado_sin_nombre_7);}.cls-5{fill:url(#Degradado_sin_nombre_7-2);}.cls-6{fill:url(#Degradado_sin_nombre_7-3);}.cls-7{fill:url(#Degradado_sin_nombre_7-4);}.cls-8{fill:url(#Degradado_sin_nombre_8);}.cls-9{fill:#fff;}</style><radialGradient id="Degradado_sin_nombre_4" cx="4.35" cy="1706.67" r="23.39" gradientTransform="matrix(1, 0, 0, -1, 0, 1725.21)" gradientUnits="userSpaceOnUse"><stop offset="0" stop-color="#fae100"/><stop offset="0.05" stop-color="#fadc04"/><stop offset="0.12" stop-color="#fbce0e"/><stop offset="0.18" stop-color="#fcb720"/><stop offset="0.25" stop-color="#fe9838"/><stop offset="0.31" stop-color="#ff7950"/><stop offset="0.49" stop-color="#ff1c74"/><stop offset="1" stop-color="#6c1cd1"/></radialGradient><linearGradient id="Degradado_sin_nombre_2" x1="8.14" y1="1716" x2="-27.8" y2="1736.21" gradientTransform="matrix(1, 0, 0, -1, 0, 1725.21)" gradientUnits="userSpaceOnUse"><stop offset="0" stop-color="#a1b5d8" stop-opacity="0"/><stop offset="0.31" stop-color="#90a2bd" stop-opacity="0.31"/><stop offset="0.76" stop-color="#7c8b9c" stop-opacity="0.76"/><stop offset="1" stop-color="#748290"/></linearGradient><linearGradient id="Degradado_sin_nombre_3" x1="10.61" y1="1706.49" x2="10.61" y2="1703.18" gradientTransform="matrix(1, 0, 0, -1, 0, 1725.21)" gradientUnits="userSpaceOnUse"><stop offset="0" stop-color="#fae100" stop-opacity="0"/><stop offset="0.31" stop-color="#fca800" stop-opacity="0.31"/><stop offset="0.63" stop-color="#fe7300" stop-opacity="0.63"/><stop offset="0.87" stop-color="#ff5200" stop-opacity="0.87"/><stop offset="1" stop-color="#ff4500"/></linearGradient><linearGradient id="Degradado_sin_nombre_7" x1="9.4" y1="1715.84" x2="4.15" y2="1721.09" gradientTransform="matrix(1, 0, 0, -1, 0, 1725.21)" gradientUnits="userSpaceOnUse"><stop offset="0" stop-color="#833ab4" stop-opacity="0"/><stop offset="1" stop-color="#833ab4"/></linearGradient><linearGradient id="Degradado_sin_nombre_7-2" x1="14.54" y1="1705.81" x2="11.92" y2="1718.16" xlink:href="#Degradado_sin_nombre_7"/><linearGradient id="Degradado_sin_nombre_7-3" x1="15.53" y1="1709.68" x2="5.01" y2="1720.2" xlink:href="#Degradado_sin_nombre_7"/><linearGradient id="Degradado_sin_nombre_7-4" x1="16.32" y1="1716.05" x2="12.83" y2="1719.53" xlink:href="#Degradado_sin_nombre_7"/><linearGradient id="Degradado_sin_nombre_8" x1="14.82" y1="1718.79" x2="6.24" y2="1710.21" gradientTransform="matrix(1, 0, 0, -1, 0, 1725.21)" gradientUnits="userSpaceOnUse"><stop offset="0" stop-color="#833ab4"/><stop offset="0.09" stop-color="#9c3495"/><stop offset="0.29" stop-color="#dc2546"/><stop offset="0.39" stop-color="#fd1d1d"/><stop offset="0.56" stop-color="#fc6831"/><stop offset="0.69" stop-color="#fc9b40"/><stop offset="0.75" stop-color="#fcaf45"/><stop offset="0.78" stop-color="#fdb750"/><stop offset="0.87" stop-color="#fecb6a"/><stop offset="0.94" stop-color="#ffd87a"/><stop offset="1" stop-color="#ffdc80"/></linearGradient></defs><title>instagram</title><g id="Capa_2" data-name="Capa 2"><g id="Controles_bootstrap" data-name="Controles bootstrap"><path class="cls-1" d="M20.85,3.79A3.87,3.87,0,0,0,17.42.36,64.69,64.69,0,0,0,3.79.36,3.89,3.89,0,0,0,.36,3.79a64.69,64.69,0,0,0,0,13.63,3.87,3.87,0,0,0,3.43,3.43,64.69,64.69,0,0,0,13.63,0,3.85,3.85,0,0,0,3.43-3.43A64.69,64.69,0,0,0,20.85,3.79Z"/><path class="cls-2" d="M19.7,4.56a3.44,3.44,0,0,0-3.05-3,56.82,56.82,0,0,0-12.09,0,3.43,3.43,0,0,0-3,3,56.82,56.82,0,0,0,0,12.09,3.44,3.44,0,0,0,3,3.05,58.16,58.16,0,0,0,12.09,0,3.45,3.45,0,0,0,3.05-3.05A58.16,58.16,0,0,0,19.7,4.56Z"/><path class="cls-3" d="M.32,17c0,.14,0,.29,0,.44a3.87,3.87,0,0,0,3.43,3.43,64.69,64.69,0,0,0,13.63,0,3.85,3.85,0,0,0,3.43-3.43c0-.15,0-.3,0-.44Z"/><path class="cls-4" d="M20.85,17.42a64.07,64.07,0,0,0,.36-7.32L16.36,5.25a3.48,3.48,0,0,0-2.53-1.16q-3.21-.12-6.42,0a3.43,3.43,0,0,0-3.34,3C4,7.41,4,7.72,3.94,8v5.15c0,.16.06.33.07.5a3.76,3.76,0,0,0,1.21,2.6l4.94,4.93a63,63,0,0,0,7.26-.36A3.85,3.85,0,0,0,20.85,17.42Z"/><path class="cls-5" d="M20.85,17.42a3.85,3.85,0,0,1-3.43,3.43,63,63,0,0,1-7.26.36L5.23,16.28a3.45,3.45,0,0,0,2.18.84q3.21.12,6.42,0a3.43,3.43,0,0,0,3.39-3.43c.07-2.06.07-4.11,0-6.17a3.55,3.55,0,0,0-.86-2.27l4.85,4.85A64.07,64.07,0,0,1,20.85,17.42Z"/><path class="cls-6" d="M13.11,8.31a3.4,3.4,0,1,0-4.8,4.8L16.17,21l1.25-.12a3.85,3.85,0,0,0,3.43-3.43L21,16.17Z"/><path class="cls-7" d="M21.17,12.89,14.84,6.56a.8.8,0,0,0-.64-.31.81.81,0,0,0-.81.8.82.82,0,0,0,.32.65L21.06,15C21.11,14.32,21.15,13.61,21.17,12.89Z"/><path class="cls-8" d="M3.94,8c0-.31.08-.62.13-.93a3.43,3.43,0,0,1,3.34-3q3.21-.12,6.42,0a3.43,3.43,0,0,1,3.39,3.43c.07,2.06.07,4.11,0,6.17a3.43,3.43,0,0,1-3.39,3.43q-3.21.12-6.42,0A3.5,3.5,0,0,1,4,13.68c0-.17,0-.34-.07-.5Zm6.67,8c1,0,2,0,2.93,0a2.39,2.39,0,0,0,2.51-2.5q.07-2.86,0-5.73a2.38,2.38,0,0,0-2.51-2.5c-1.94,0-3.89,0-5.83,0A2.37,2.37,0,0,0,5.2,7.71q-.08,2.9,0,5.79A2.38,2.38,0,0,0,7.71,16C8.67,16,9.64,16,10.61,16Z"/><path class="cls-9" d="M3.94,8c0-.31.08-.62.13-.93a3.43,3.43,0,0,1,3.34-3q3.21-.12,6.42,0a3.43,3.43,0,0,1,3.39,3.43c.07,2.06.07,4.11,0,6.17a3.43,3.43,0,0,1-3.39,3.43q-3.21.12-6.42,0A3.5,3.5,0,0,1,4,13.68c0-.17,0-.34-.07-.5Zm6.67,8c1,0,2,0,2.93,0a2.39,2.39,0,0,0,2.51-2.5q.07-2.86,0-5.73a2.38,2.38,0,0,0-2.51-2.5c-1.94,0-3.89,0-5.83,0A2.37,2.37,0,0,0,5.2,7.71q-.08,2.9,0,5.79A2.38,2.38,0,0,0,7.71,16C8.67,16,9.64,16,10.61,16Z"/><path class="cls-9" d="M10.61,7.21A3.4,3.4,0,1,0,14,10.61,3.4,3.4,0,0,0,10.61,7.21Zm0,5.62a2.23,2.23,0,1,1,2.22-2.22A2.22,2.22,0,0,1,10.61,12.83Z"/><path class="cls-9" d="M15,7.05a.81.81,0,1,1-.81-.8A.81.81,0,0,1,15,7.05Z"/></g></g></svg>